# xmcd
#
# Track frame offsets:
#	150
#	15678
#	39382
#	53460
#	79113
#	103591
#	120996
#	138325
#	142300
#	167593
#
# Disc length: 3223 seconds
#
# Revision: 0
# Processed by: cddbd v1.5.2PL0 Copyright (c) Steve Scherf et al.
# Submitted via: dBpowerAMP V4.0
#
DISCID=7a0c950a
DTITLE=Blodwin Pig - Ahead Rings Out
DYEAR=1995
DGENRE=Blues
TTITLE0=It's Only Love
TTITLE1=Dear Jill
TTITLE2=Singe Me A Song That I Know
TTITLE3=Modern Alchemist
TTITLE4=Up and Coming
TTITLE5=Leave It With Me
TTITLE6=The Chnage Song
TTITLE7=Backwash
TTITLE8=Ain't Ya Coming Home Babe
TTITLE9=Cat Squirrel
EXTD=
EXTT0=
EXTT1=
EXTT2=
EXTT3=
EXTT4=
EXTT5=
EXTT6=
EXTT7=
EXTT8=
EXTT9=
PLAYORDER=
